<?xml version="1.0" encoding="utf-8"?>
<!-- Generator: Adobe Illustrator 23.0.0, SVG Export Plug-In . SVG Version: 6.00 Build 0)  -->
<svg version="1.1" id="Layer_1" xmlns="http://www.w3.org/2000/svg" xmlns:xlink="http://www.w3.org/1999/xlink" x="0px" y="0px"
	 viewBox="0 0 310 135.6" style="enable-background:new 0 0 310 135.6;" xml:space="preserve">
<style type="text/css">
	.st0{fill:#6D6E71;}
	.st1{fill:#AC1F23;}
	.st2{fill:#828386;}
</style>
<g id="Image">
	<path class="st0" d="M91.9,43.6C91.9,15.4,76.2,0,33.7,0H0.3v135.2h13.5v-123h19c31.5,0,45.4,8.2,45.4,30.7
		c0,24.3-12.8,30.9-50.7,30.9l45.6,61.3h16.8L52,84.7C78,82,91.9,67.5,91.9,43.6z"/>
	<path class="st0" d="M309.8,68.1c0-25.4-10.6-45.6-30.7-57.5C266.2,2.9,252,0,227.4,0h-31.8v135.2H232
		C284.9,135.2,309.8,107.1,309.8,68.1z M296.1,67.5c0,17.8-7,33.3-19.4,43.4C265.9,119.5,252,123,228,123h-18.8V12.3H228
		c20.5,0,33.3,2.6,43.6,8.8C287.1,30.4,296.1,47.4,296.1,67.5z"/>
	<path class="st1" d="M104.8,122.7h73.9v12.6h-73.9V122.7z"/>
	<path class="st1" d="M104.8,61.3h73.9v12.6h-73.9V61.3z"/>
	<path class="st1" d="M104.8,0h73.9v12.6h-73.9V0z"/>
	<path class="st2" d="M17.6,159.7v-15.3h-2.4l-5.6,13.1l-5.6-13.1H1.7v15.3h1.5V146L9,159.7h1.3l5.8-13.7v13.7H17.6z"/>
	<path class="st2" d="M41.8,152c0-4.4-3.7-7.9-8.1-7.9c-4.4,0-8.1,3.6-8.1,7.8c0,4.5,3.6,8,8.1,8C38.2,160,41.8,156.4,41.8,152z
		 M40.3,152c0,3.5-3,6.5-6.5,6.5c-3.6,0-6.6-2.9-6.6-6.6c0-3.5,3-6.5,6.6-6.5C37.3,145.5,40.3,148.5,40.3,152z"/>
	<path class="st2" d="M62.8,152.1c0-2.9-1.2-5.2-3.5-6.5c-1.5-0.9-3.1-1.2-5.9-1.2h-3.6v15.3H54C60,159.7,62.8,156.5,62.8,152.1z
		 M61.2,152c0,2-0.8,3.8-2.2,4.9c-1.2,1-2.8,1.4-5.5,1.4h-2.1v-12.6h2.1c2.3,0,3.8,0.3,4.9,1C60.2,147.8,61.2,149.7,61.2,152z"/>
	<path class="st2" d="M79.2,159.7v-1.4h-6.8v-5.7H79v-1.4h-6.6v-5.5h6.8v-1.4h-8.4v15.3H79.2z"/>
	<path class="st2" d="M95.4,159.7v-1.4H89v-13.9h-1.5v15.3H95.4z"/>
	<path class="st2" d="M129.8,159.7v-15.3h-2.4l-5.6,13.1l-5.6-13.1h-2.4v15.3h1.5V146l5.7,13.7h1.3l5.8-13.7v13.7H129.8z"/>
	<path class="st2" d="M152,159.7l-6.6-15.3h-1.7l-6.6,15.3h1.6l2.2-5.2h7.1l2.2,5.2H152z M147.5,153.1h-6l3-7L147.5,153.1z"/>
	<path class="st2" d="M171.5,159.7v-15.3H170v12.7l-8.6-12.7h-2.1v15.3h1.5v-13.5l9.1,13.5H171.5z"/>
	<path class="st2" d="M193.8,159.7l-6.6-15.3h-1.7l-6.6,15.3h1.6l2.2-5.2h7.1l2.2,5.2H193.8z M189.3,153.1h-6l3-7L189.3,153.1z"/>
	<path class="st2" d="M215.9,152.6h-10.4v1.4h8.6c-0.6,2.4-3.2,4.5-6.2,4.5c-3.8,0-6.7-2.9-6.7-6.5c0-3.7,2.9-6.5,6.7-6.5
		c2.4,0,4.4,1.1,5.4,2.9h1.7c-1-2.6-3.9-4.4-7.3-4.4c-4.6,0-8.1,3.5-8.1,7.9c0,4.5,3.7,8,8.3,8C212.5,160,215.7,156.5,215.9,152.6z"
		/>
	<path class="st2" d="M232.3,159.7v-1.4h-6.8v-5.7h6.6v-1.4h-6.6v-5.5h6.8v-1.4h-8.4v15.3H232.3z"/>
	<path class="st2" d="M256.5,159.7v-15.3h-2.4l-5.6,13.1l-5.6-13.1h-2.4v15.3h1.5V146l5.7,13.7h1.3l5.8-13.7v13.7H256.5z"/>
	<path class="st2" d="M273.5,159.7v-1.4h-6.8v-5.7h6.6v-1.4h-6.6v-5.5h6.8v-1.4h-8.4v15.3H273.5z"/>
	<path class="st2" d="M294,159.7v-15.3h-1.5v12.7l-8.6-12.7h-2.1v15.3h1.5v-13.5l9.1,13.5H294z"/>
	<path class="st2" d="M309.8,145.7v-1.4h-8.6v1.4h3.5v13.9h1.5v-13.9H309.8z"/>
</g>
</svg>
